<svg width="42" height="32" viewBox="0 0 42 32" fill="none" xmlns="http://www.w3.org/2000/svg">
<g clip-path="url(#clip0_390_14)">
<path opacity="0.15" fill-rule="evenodd" clip-rule="evenodd" d="M1.5 6.89819C1.5 5.79363 2.39543 4.89819 3.5 4.89819H38.3C39.4046 4.89819 40.3 5.79363 40.3 6.89819V27.887C40.3 28.9916 39.4046 29.887 38.3 29.887H24.2108C28.4393 28.531 31.5 24.5685 31.5 19.8915C31.5 14.0951 26.799 9.39619 21 9.39619C15.201 9.39619 10.5 14.0951 10.5 19.8915C10.5 24.5685 13.5607 28.531 17.7892 29.887H3.5C2.39543 29.887 1.5 28.9916 1.5 27.887V6.89819ZM21 24.8893C23.7614 24.8893 26 22.6517 26 19.8915C26 17.1313 23.7614 14.8937 21 14.8937C18.2386 14.8937 16 17.1313 16 19.8915C16 22.6517 18.2386 24.8893 21 24.8893Z" fill="url(#paint0_linear_390_14)"/>
<path d="M2.04688 21.5654C2.04688 21.8198 1.84039 22.0262 1.58594 22.0262C1.33149 22.0262 1.125 21.8198 1.125 21.5654V19.1965C1.125 18.9419 1.33145 18.7358 1.58594 18.7358C1.84043 18.7358 2.04688 18.9419 2.04688 19.1965V21.5654Z" fill="url(#paint1_linear_390_14)" stroke="url(#paint2_linear_390_14)" stroke-width="0.25"/>
<path d="M38.7448 4.72371H36.3178V4.44734C36.3178 3.66461 35.6806 3.02738 34.8972 3.02738H34.6484V2.31999C34.6484 1.53695 34.0109 0.900024 33.2278 0.900024H30.4285C29.6454 0.900024 29.0079 1.53695 29.0079 2.31999V3.02738H28.7591C27.9758 3.02738 27.3386 3.6643 27.3386 4.44734V4.72371H18.9984V4.11363C18.9984 3.3309 18.3612 2.69366 17.5778 2.69366H16.448C15.6649 2.69366 15.0274 3.33059 15.0274 4.11363V4.72371H13.6566V3.27934C13.6566 2.49661 13.0194 1.85938 12.236 1.85938H6.09828C5.31519 1.85938 4.67768 2.49661 4.67768 3.27934V4.72371H3.25525C2.01166 4.72371 1 5.73523 1 6.97797V16.646C1 16.9696 1.26245 17.2316 1.58594 17.2316C1.90943 17.2316 2.17188 16.9696 2.17188 16.646V11.0838H5.37867C5.63654 12.0276 6.50172 12.7237 7.5265 12.7237C8.55159 12.7237 9.41646 12.0276 9.67433 11.0838H14.3277C11.6247 13.1148 9.87331 16.3458 9.87331 19.9782C9.87331 22.363 10.6283 24.5745 11.9116 26.3874H2.17188V24.1161C2.17188 23.7925 1.90943 23.5304 1.58594 23.5304C1.26245 23.5304 1 23.7925 1 24.1161V27.7796C1 29.0226 2.01166 30.0339 3.25525 30.0339H16.2491C17.6907 30.7172 19.3014 31.1 21 31.1C22.6993 31.1 24.3103 30.7169 25.7522 30.033C25.7568 30.0333 25.7611 30.0339 25.7657 30.0339H38.7448C39.9884 30.0339 41.0001 29.0226 41.0001 27.7796V6.97797C41.0001 5.73523 39.9884 4.72371 38.7448 4.72371ZM30.1797 2.31999C30.1797 2.18303 30.2914 2.07138 30.4288 2.07138H33.2278C33.3649 2.07138 33.4766 2.18272 33.4766 2.31999V3.02738H30.1801L30.1797 2.31999ZM28.5104 4.44734C28.5104 4.31038 28.6221 4.19873 28.7595 4.19873H34.8972C35.0342 4.19873 35.1459 4.31038 35.1459 4.44734V4.72371H28.5107L28.5104 4.44734ZM16.1993 4.11363C16.1993 3.97667 16.311 3.86502 16.448 3.86502H17.5778C17.7151 3.86502 17.8265 3.97667 17.8265 4.11363V4.72371H16.1993V4.11363ZM5.84956 3.27934C5.84956 3.14238 5.96125 3.03073 6.09828 3.03073H12.2363C12.3733 3.03073 12.485 3.14238 12.485 3.27934V4.72371H5.84956V3.27934ZM7.5265 11.5523C6.94514 11.5523 6.47181 11.0795 6.47181 10.4982C6.47181 9.91703 6.94514 9.44391 7.5265 9.44391C8.10817 9.44391 8.58119 9.91703 8.58119 10.4982C8.58119 11.0795 8.10817 11.5523 7.5265 11.5523ZM9.67433 9.91246C9.41646 8.96866 8.55159 8.27256 7.5265 8.27256C6.50141 8.27256 5.63654 8.96866 5.37867 9.91246H2.17188V6.97797C2.17188 6.381 2.65802 5.89507 3.25525 5.89507H38.7448C39.3421 5.89507 39.8282 6.381 39.8282 6.97797V9.91246H38.0844V7.78449C38.0844 7.46115 37.822 7.19882 37.4985 7.19882H32.0453C31.7218 7.19882 31.4594 7.46115 31.4594 7.78449V9.91246H25.7266C24.2627 9.22551 22.651 8.85671 21 8.85671C19.31 8.85671 17.7072 9.23587 16.2713 9.91246H9.67433ZM32.6312 9.91246V8.37017H36.9125V9.91246H32.6312ZM3.25525 28.8625C2.65802 28.8625 2.17188 28.3766 2.17188 27.7796V27.5588H12.8665C13.3099 28.034 13.7942 28.4705 14.3139 28.8625H3.25525ZM11.0452 19.9785C11.0452 14.4917 15.5111 10.0281 21 10.0281C23.847 10.0281 26.5637 11.2512 28.454 13.3838C28.6685 13.626 29.0387 13.6486 29.281 13.4339C29.5233 13.2194 29.5456 12.8494 29.3311 12.6071C28.8284 12.0401 28.273 11.5313 27.6761 11.0838H39.8282V26.3874H30.0885C30.9833 25.1233 31.6205 23.6652 31.9247 22.0897H33.4576C34.3219 22.0897 35.0253 21.3868 35.0253 20.5227V19.0637C35.0253 18.1995 34.3222 17.4967 33.4576 17.4967H31.8448C31.6318 16.5648 31.301 15.661 30.8569 14.816C30.7065 14.5296 30.3522 14.4191 30.0659 14.5699C29.7794 14.7202 29.6689 15.074 29.8193 15.3605C30.5621 16.7747 30.9549 18.3716 30.9549 19.9785C30.9549 25.4652 26.4892 29.9289 21 29.9289C15.5111 29.9289 11.0452 25.4649 11.0452 19.9785ZM32.0483 18.6678H33.4576C33.6758 18.6678 33.8535 18.8453 33.8535 19.0634V20.5227C33.8535 20.7408 33.6758 20.9184 33.4576 20.9184H32.0865C32.1127 20.6084 32.1268 20.2948 32.1268 19.9782C32.1268 19.5399 32.1002 19.1022 32.0483 18.6678ZM38.7448 28.8625H27.6861C28.2059 28.4705 28.6902 28.034 29.1336 27.5588H39.8282V27.7796C39.8282 28.3766 39.3421 28.8625 38.7448 28.8625Z" fill="url(#paint3_linear_390_14)" stroke="url(#paint4_linear_390_14)" stroke-width="0.25"/>
<path d="M13.2417 19.9785C13.2417 15.7022 16.7221 12.223 21.0003 12.223C25.2785 12.223 28.7589 15.7022 28.7589 19.9785C28.7589 24.2545 25.2785 27.7336 21.0003 27.7336C16.7221 27.7336 13.2417 24.2545 13.2417 19.9785ZM14.1635 19.9785C14.1635 23.7467 17.2304 26.8121 21.0003 26.8121C24.7702 26.8121 27.837 23.7467 27.837 19.9785C27.837 16.2103 24.7702 13.1445 21.0003 13.1445C17.2304 13.1445 14.1635 16.2103 14.1635 19.9785Z" fill="url(#paint5_linear_390_14)" stroke="url(#paint6_linear_390_14)" stroke-width="0.25"/>
<path d="M15.6191 19.9785C15.6191 17.0126 18.0332 14.5995 21.0001 14.5995C23.9673 14.5995 26.3814 17.0126 26.3814 19.9785C26.3814 22.9443 23.9673 25.3571 21.0001 25.3571C18.0329 25.3571 15.6191 22.9443 15.6191 19.9785ZM16.541 19.9785C16.541 22.4363 18.5412 24.4356 21.0001 24.4356C23.459 24.4356 25.4595 22.4363 25.4595 19.9785C25.4595 17.5204 23.459 15.521 21.0001 15.521C18.5412 15.521 16.541 17.5204 16.541 19.9785Z" fill="url(#paint7_linear_390_14)" stroke="url(#paint8_linear_390_14)" stroke-width="0.25"/>
</g>
<defs>
<linearGradient id="paint0_linear_390_14" x1="3.69867" y1="4.89819" x2="22.5688" y2="37.2521" gradientUnits="userSpaceOnUse">
<stop offset="0.259336" stop-color="#6E90FF"/>
<stop offset="1" stop-color="#815EFF"/>
</linearGradient>
<linearGradient id="paint1_linear_390_14" x1="1.17724" y1="18.7358" x2="2.7893" y2="19.2346" gradientUnits="userSpaceOnUse">
<stop offset="0.259336" stop-color="#6E90FF"/>
<stop offset="1" stop-color="#815EFF"/>
</linearGradient>
<linearGradient id="paint2_linear_390_14" x1="1.17724" y1="18.7358" x2="2.7893" y2="19.2346" gradientUnits="userSpaceOnUse">
<stop offset="0.259336" stop-color="#6E90FF"/>
<stop offset="1" stop-color="#815EFF"/>
</linearGradient>
<linearGradient id="paint3_linear_390_14" x1="3.26668" y1="0.900025" x2="27.6816" y2="36.6089" gradientUnits="userSpaceOnUse">
<stop offset="0.259336" stop-color="#6E90FF"/>
<stop offset="1" stop-color="#815EFF"/>
</linearGradient>
<linearGradient id="paint4_linear_390_14" x1="3.26668" y1="0.900025" x2="27.6816" y2="36.6089" gradientUnits="userSpaceOnUse">
<stop offset="0.259336" stop-color="#6E90FF"/>
<stop offset="1" stop-color="#815EFF"/>
</linearGradient>
<linearGradient id="paint5_linear_390_14" x1="14.121" y1="12.223" x2="27.5113" y2="27.0154" gradientUnits="userSpaceOnUse">
<stop offset="0.259336" stop-color="#6E90FF"/>
<stop offset="1" stop-color="#815EFF"/>
</linearGradient>
<linearGradient id="paint6_linear_390_14" x1="14.121" y1="12.223" x2="27.5113" y2="27.0154" gradientUnits="userSpaceOnUse">
<stop offset="0.259336" stop-color="#6E90FF"/>
<stop offset="1" stop-color="#815EFF"/>
</linearGradient>
<linearGradient id="paint7_linear_390_14" x1="16.229" y1="14.5995" x2="25.516" y2="24.8591" gradientUnits="userSpaceOnUse">
<stop offset="0.259336" stop-color="#6E90FF"/>
<stop offset="1" stop-color="#815EFF"/>
</linearGradient>
<linearGradient id="paint8_linear_390_14" x1="16.229" y1="14.5995" x2="25.516" y2="24.8591" gradientUnits="userSpaceOnUse">
<stop offset="0.259336" stop-color="#6E90FF"/>
<stop offset="1" stop-color="#815EFF"/>
</linearGradient>
<clipPath id="clip0_390_14">
<rect width="42" height="32" fill="white"/>
</clipPath>
</defs>
</svg>
