<svg width="40" height="40" viewBox="0 0 40 40" fill="none" xmlns="http://www.w3.org/2000/svg">
<path opacity="0.15" fill-rule="evenodd" clip-rule="evenodd" d="M12 1C10.8954 1 10 1.89543 10 3V37C10 38.1046 10.8954 39 12 39H27.9C29.0046 39 29.9 38.1046 29.9 37V3C29.9 1.89543 29.0046 1 27.9 1H24.6631V2H15.2368V1H12Z" fill="url(#paint0_linear_390_7)"/>
<path d="M17.5084 35.6745C17.1349 35.6745 16.8321 35.9773 16.8321 36.3508C16.8321 36.7243 17.1349 37.0271 17.5084 37.0271V35.6745ZM22.4632 37.0271C22.8367 37.0271 23.1395 36.7243 23.1395 36.3508C23.1395 35.9773 22.8367 35.6745 22.4632 35.6745V37.0271ZM9.3999 29.4141C9.3999 29.7876 9.70271 30.0904 10.0762 30.0904C10.4498 30.0904 10.7526 29.7876 10.7526 29.4141H9.3999ZM10.7526 32.387C10.7526 32.0134 10.4498 31.7106 10.0762 31.7106C9.70271 31.7106 9.3999 32.0134 9.3999 32.387H10.7526ZM29.2191 7.61303C29.2191 7.98656 29.5219 8.28936 29.8954 8.28936C30.2689 8.28936 30.5717 7.98656 30.5717 7.61303H29.2191ZM30.5717 10.5859C30.5717 10.2124 30.2689 9.90956 29.8954 9.90956C29.5219 9.90956 29.2191 10.2124 29.2191 10.5859H30.5717ZM27.4799 38.6473H12.4917V40H27.4799V38.6473ZM12.4917 1.35266H15.5265V0H12.4917V1.35266ZM14.8502 1.69206H16.2028V0.676328H14.8502V1.69206ZM16.4927 3.33457H23.479V1.98191H16.4927V3.33457ZM15.5265 1.35266H24.4451V0H15.5265V1.35266ZM24.4451 1.35266H27.4799V0H24.4451V1.35266ZM25.1215 1.69206V0.676328H23.7688V1.69206H25.1215ZM17.5084 37.0271H22.4632V35.6745H17.5084V37.0271ZM10.7526 29.4141V3.09179H9.3999V29.4141H10.7526ZM10.7526 36.9082V32.387H9.3999V36.9082H10.7526ZM29.2191 3.09179V7.61303H30.5717V3.09179H29.2191ZM29.2191 10.5859V36.9082H30.5717V10.5859H29.2191ZM23.479 3.33457C24.3861 3.33457 25.1215 2.5992 25.1215 1.69206H23.7688C23.7688 1.85214 23.6391 1.98191 23.479 1.98191V3.33457ZM12.4917 38.6473C11.5312 38.6473 10.7526 37.8687 10.7526 36.9082H9.3999C9.3999 38.6157 10.7841 40 12.4917 40V38.6473ZM27.4799 40C29.1875 40 30.5717 38.6157 30.5717 36.9082H29.2191C29.2191 37.8687 28.4404 38.6473 27.4799 38.6473V40ZM27.4799 1.35266C28.4404 1.35266 29.2191 2.13129 29.2191 3.09179H30.5717C30.5717 1.38424 29.1875 0 27.4799 0V1.35266ZM14.8502 1.69206C14.8502 2.5992 15.5855 3.33457 16.4927 3.33457V1.98191C16.3326 1.98191 16.2028 1.85214 16.2028 1.69206H14.8502ZM12.4917 0C10.7841 0 9.3999 1.38424 9.3999 3.09179H10.7526C10.7526 2.13129 11.5312 1.35266 12.4917 1.35266V0Z" fill="url(#paint1_linear_390_7)"/>
<defs>
<linearGradient id="paint0_linear_390_7" x1="11.1277" y1="1" x2="39.7017" y2="17.5237" gradientUnits="userSpaceOnUse">
<stop offset="0.259336" stop-color="#6E90FF"/>
<stop offset="1" stop-color="#815EFF"/>
</linearGradient>
<linearGradient id="paint1_linear_390_7" x1="10.5996" y1="6.01422e-07" x2="40.8366" y2="17.6726" gradientUnits="userSpaceOnUse">
<stop offset="0.259336" stop-color="#6E90FF"/>
<stop offset="1" stop-color="#815EFF"/>
</linearGradient>
</defs>
</svg>
